<svg width="180" height="48" viewBox="0 0 180 48" fill="none" xmlns="http://www.w3.org/2000/svg">
  <path d="M24 8C15.163 8 8 15.163 8 24C8 32.837 15.163 40 24 40C32.837 40 40 32.837 40 24C40 15.163 32.837 8 24 8ZM24 36C17.373 36 12 30.627 12 24C12 17.373 17.373 12 24 12C30.627 12 36 17.373 36 24C36 30.627 30.627 36 24 36Z" fill="#000000"/>
  <path d="M24 16C19.582 16 16 19.582 16 24C16 28.418 19.582 32 24 32C28.418 32 32 28.418 32 24C32 19.582 28.418 16 24 16ZM24 28C21.791 28 20 26.209 20 24C20 21.791 21.791 20 24 20C26.209 20 28 21.791 28 24C28 26.209 26.209 28 24 28Z" fill="#000000"/>
  <path d="M24 4C13.059 4 4 13.059 4 24C4 34.941 13.059 44 24 44C34.941 44 44 34.941 44 24C44 13.059 34.941 4 24 4ZM24 40C15.163 40 8 32.837 8 24C8 15.163 15.163 8 24 8C32.837 8 40 15.163 40 24C40 32.837 32.837 40 24 40Z" fill="#000000"/>
  <path d="M52 16H56V32H52V16Z" fill="#000000"/>
  <path d="M60 16H64V18H64.2C65 16.8 66.4 16 68 16C71.4 16 74 18.6 74 22V32H70V22.8C70 21 68.8 19.6 67 19.6C65.2 19.6 64 21 64 22.8V32H60V16Z" fill="#000000"/>
  <path d="M76 24C76 19.6 79.6 16 84 16C88.4 16 92 19.6 92 24C92 28.4 88.4 32 84 32C79.6 32 76 28.4 76 24ZM88 24C88 21.8 86.2 20 84 20C81.8 20 80 21.8 80 24C80 26.2 81.8 28 84 28C86.2 28 88 26.2 88 24Z" fill="#000000"/>
  <path d="M94 24C94 19.6 97.6 16 102 16C104.8 16 107.2 17.4 108.4 19.6L105.2 21.4C104.6 20.2 103.4 19.6 102 19.6C99.8 19.6 98 21.4 98 23.6C98 25.8 99.8 27.6 102 27.6C103.4 27.6 104.6 27 105.2 25.8L108.4 27.6C107.2 29.8 104.8 31.2 102 31.2C97.6 32 94 28.4 94 24Z" fill="#000000"/>
  <path d="M110 16H114V18H114.2C115 16.8 116.4 16 118 16C119.6 16 121 16.8 121.8 18C122.8 16.8 124.4 16 126.2 16C129.6 16 132 18.4 132 21.8V32H128V22.6C128 21 126.8 19.8 125.2 19.8C123.6 19.8 122.4 21 122.4 22.6V32H118.4V22.6C118.4 21 117.2 19.8 115.6 19.8C114 19.8 112.8 21 112.8 22.6V32H108.8V16H110Z" fill="#000000"/>
  <path d="M134 24C134 19.6 137.6 16 142 16C146.4 16 150 19.6 150 24C150 28.4 146.4 32 142 32C137.6 32 134 28.4 134 24ZM146 24C146 21.8 144.2 20 142 20C139.8 20 138 21.8 138 24C138 26.2 139.8 28 142 28C144.2 28 146 26.2 146 24Z" fill="#000000"/>
  <path d="M152 16H156V18H156.2C157 16.8 158.4 16 160 16C163.4 16 166 18.6 166 22V32H162V22.8C162 21 160.8 19.6 159 19.6C157.2 19.6 156 21 156 22.8V32H152V16Z" fill="#000000"/>
  <path d="M168 16H172V18H172.2C173 16.8 174.4 16 176 16C177.6 16 179 16.8 179.8 18H180V16H184V32H180V22.8C180 21 178.8 19.6 177 19.6C175.2 19.6 174 21 174 22.8V32H170V22.8C170 21 168.8 19.6 167 19.6C165.2 19.6 164 21 164 22.8V32H160V16H164V18H164.2C165 16.8 166.4 16 168 16Z" fill="#000000"/>
</svg>
