<?xml version="1.0" encoding="UTF-8" standalone="no"?>
<svg xmlns="http://www.w3.org/2000/svg" width="320" height="180" viewBox="0 0 320 180">
  <rect width="320" height="180" fill="#fff"/>
  <!-- NOR gates for SR flip-flop -->
  <path d="M60,60 Q90,90 60,120 Q90,90 120,90 Q120,60 60,60" fill="#fff" stroke="#222" stroke-width="2"/>
  <circle cx="130" cy="90" r="8" fill="#fff" stroke="#222" stroke-width="2"/>
  <path d="M180,60 Q210,90 180,120 Q210,90 240,90 Q240,60 180,60" fill="#fff" stroke="#222" stroke-width="2"/>
  <circle cx="250" cy="90" r="8" fill="#fff" stroke="#222" stroke-width="2"/>
  <!-- Inputs -->
  <line x1="30" y1="70" x2="60" y2="70" stroke="#222" stroke-width="2"/>
  <text x="10" y="75" font-size="12" fill="#222">S</text>
  <line x1="30" y1="110" x2="60" y2="110" stroke="#222" stroke-width="2"/>
  <text x="10" y="115" font-size="12" fill="#222">R</text>
  <!-- Feedback wires -->
  <line x1="138" y1="90" x2="180" y2="110" stroke="#222" stroke-width="2"/>
  <line x1="250" y1="90" x2="60" y2="110" stroke="#222" stroke-width="2"/>
  <!-- Outputs -->
  <line x1="130" y1="90" x2="160" y2="90" stroke="#222" stroke-width="2"/>
  <text x="140" y="80" font-size="12" fill="#222">Q</text>
  <line x1="250" y1="90" x2="280" y2="90" stroke="#222" stroke-width="2"/>
  <text x="260" y="80" font-size="12" fill="#222">Q̅</text>
</svg>
