<?xml version="1.0" encoding="UTF-8" standalone="no"?>
<svg xmlns="http://www.w3.org/2000/svg" width="400" height="200" viewBox="0 0 400 200">
  <rect width="400" height="200" fill="#fff"/>
  <!-- Op-Amp Triangle -->
  <polygon points="160,60 320,100 160,140" fill="#fff" stroke="#222" stroke-width="2"/>
  <!-- Non-inverting input -->
  <line x1="120" y1="120" x2="160" y2="120" stroke="#222" stroke-width="2"/>
  <circle cx="120" cy="120" r="4" fill="#fff" stroke="#222" stroke-width="2"/>
  <text x="90" y="125" font-size="12" fill="#222">IN (+)</text>
  <!-- Inverting input to GND -->
  <line x1="120" y1="80" x2="160" y2="80" stroke="#222" stroke-width="2"/>
  <circle cx="120" cy="80" r="4" fill="#fff" stroke="#222" stroke-width="2"/>
  <text x="90" y="85" font-size="12" fill="#222">GND (-)</text>
  <!-- Feedback resistor -->
  <polyline points="248,120 252,114 256,126 260,114 264,126 268,114 272,126 276,120" fill="none" stroke="#222" stroke-width="2"/>
  <text x="260" y="110" font-size="12" fill="#222">Rf</text>
  <line x1="276" y1="120" x2="248" y2="80" stroke="#222" stroke-width="2"/>
  <!-- Input resistor -->
  <polyline points="120,120 124,114 128,126 132,114 136,126 140,114 144,126 148,120" fill="none" stroke="#222" stroke-width="2"/>
  <text x="130" y="110" font-size="12" fill="#222">Rin</text>
  <!-- Output -->
  <line x1="320" y1="100" x2="360" y2="100" stroke="#222" stroke-width="2"/>
  <text x="365" y="105" font-size="12" fill="#222">OUT</text>
  <!-- Power rails -->
  <line x1="240" y1="60" x2="240" y2="40" stroke="#222" stroke-width="2"/>
  <text x="230" y="35" font-size="12" fill="#222">+V</text>
  <line x1="240" y1="140" x2="240" y2="160" stroke="#222" stroke-width="2"/>
  <text x="230" y="175" font-size="12" fill="#222">-V</text>
</svg>
