<?xml version="1.0" encoding="UTF-8" standalone="no"?>
<svg xmlns="http://www.w3.org/2000/svg" width="420" height="220" viewBox="0 0 420 220">
  <rect width="420" height="220" fill="#fff"/>
  <!-- Op-Amp Triangle -->
  <polygon points="200,80 340,110 200,140" fill="#fff" stroke="#222" stroke-width="2"/>
  <!-- Inverting input -->
  <line x1="160" y1="100" x2="200" y2="100" stroke="#222" stroke-width="2"/>
  <circle cx="160" cy="100" r="4" fill="#fff" stroke="#222" stroke-width="2"/>
  <text x="120" y="105" font-size="12" fill="#222">IN1</text>
  <!-- Second input -->
  <line x1="160" y1="120" x2="200" y2="120" stroke="#222" stroke-width="2"/>
  <circle cx="160" cy="120" r="4" fill="#fff" stroke="#222" stroke-width="2"/>
  <text x="120" y="125" font-size="12" fill="#222">IN2</text>
  <!-- Feedback resistor -->
  <polyline points="260,100 264,94 268,106 272,94 276,106 280,94 284,106 288,100" fill="none" stroke="#222" stroke-width="2"/>
  <text x="270" y="90" font-size="12" fill="#222">Rf</text>
  <line x1="288" y1="100" x2="288" y2="120" stroke="#222" stroke-width="2"/>
  <!-- Input resistors -->
  <polyline points="160,100 164,94 168,106 172,94 176,106 180,94 184,106 188,100" fill="none" stroke="#222" stroke-width="2"/>
  <text x="170" y="90" font-size="12" fill="#222">R1</text>
  <polyline points="160,120 164,114 168,126 172,114 176,126 180,114 184,126 188,120" fill="none" stroke="#222" stroke-width="2"/>
  <text x="170" y="130" font-size="12" fill="#222">R2</text>
  <!-- Output -->
  <line x1="340" y1="110" x2="380" y2="110" stroke="#222" stroke-width="2"/>
  <text x="385" y="115" font-size="12" fill="#222">OUT</text>
  <!-- Power rails -->
  <line x1="260" y1="80" x2="260" y2="60" stroke="#222" stroke-width="2"/>
  <text x="250" y="55" font-size="12" fill="#222">+V</text>
  <line x1="260" y1="140" x2="260" y2="160" stroke="#222" stroke-width="2"/>
  <text x="250" y="175" font-size="12" fill="#222">-V</text>
</svg>
